<?xml version="1.0" encoding="UTF-8" standalone="no" ?>
<!-- Created with Inkscape (http://www.inkscape.org/) -->
<svg xmlns:dc="http://purl.org/dc/elements/1.1/" xmlns:cc="http://creativecommons.org/ns#" xmlns:rdf="http://www.w3.org/1999/02/22-rdf-syntax-ns#" xmlns:svg="http://www.w3.org/2000/svg" xmlns="http://www.w3.org/2000/svg" xmlns:sodipodi="http://sodipodi.sourceforge.net/DTD/sodipodi-0.dtd" xmlns:inkscape="http://www.inkscape.org/namespaces/inkscape" id="svg2" version="1.1" inkscape:version="0.48.3.1 r9886" width="1772" height="850" sodipodi:docname="ASB_Logo_2013.svg" style="">
  <metadata id="metadata8">
    <rdf:RDF>
      <cc:Work rdf:about="">
        <dc:format>image/svg+xml</dc:format>
        <dc:type rdf:resource="http://purl.org/dc/dcmitype/StillImage" />
        <dc:title />
      </cc:Work>
    </rdf:RDF>
  </metadata>
  <defs id="defs6" />
  <sodipodi:namedview pagecolor="#ffffff" bordercolor="#666666" borderopacity="1" objecttolerance="10" gridtolerance="10" guidetolerance="10" inkscape:pageopacity="0" inkscape:pageshadow="2" inkscape:window-width="1280" inkscape:window-height="977" id="namedview4" showgrid="false" inkscape:zoom="0.65124153" inkscape:cx="895.83281" inkscape:cy="416.41652" inkscape:window-x="-2" inkscape:window-y="-3" inkscape:window-maximized="1" inkscape:current-layer="svg2" />
  <rect style="fill:none;fill-opacity:1;stroke:none" id="rect2989" width="1772" height="850" x="0" y="0" rx="6.6820002" ry="6.6816716" />
  <path style="fill:#ffffff;stroke:none;stroke-width:1px;stroke-linecap:butt;stroke-linejoin:miter;stroke-opacity:1;opacity:1;fill-opacity:1" d="m 370.06239,443.08492 0,-121.69064 c 0,-3.43922 2.41503,-9.21317 9.59706,-9.21317 l 53.35961,0 c 14.18482,0 9.00804,7.29274 7.67765,9.59705 l -66.02773,121.30676 c -3.11005,5.38676 -4.60659,1.5409 -4.60659,0 z" id="path3785" inkscape:connector-curvature="0" sodipodi:nodetypes="ccccccc" />
  <path style="opacity:1;fill:#ffffff;stroke:none;stroke-width:1px;stroke-linecap:butt;stroke-linejoin:miter;stroke-opacity:1;fill-opacity:1" d="M 505.15625 312.28125 C 500.197 312.28125 497.89309 315.16874 494.5625 320.9375 L 374.0625 543.53125 C 372.50048 546.23675 372.49122 550.59375 378.65625 550.59375 L 451.96875 551.125 L 473.6875 508.53125 L 621.0625 508.53125 L 644.40625 551.125 L 717.4375 551.125 C 721.0614 551.125 724.63868 547.34261 721.5 541.90625 L 599.34375 320.40625 C 595.46888 314.31834 595.2724 312.28125 585.5 312.28125 L 505.15625 312.28125 z M 509.84375 393.5 L 631.53125 393.5 C 633.07215 393.5 636.91801 395.01495 631.53125 398.125 L 510.21875 464.15625 C 507.91444 465.48664 500.625 470.65357 500.625 456.46875 L 500.625 403.09375 C 500.625 395.91172 506.40453 393.5 509.84375 393.5 z " id="path3787" />
  <path style="opacity:1;fill:#ffffff;stroke:none;stroke-width:1px;stroke-linecap:butt;stroke-linejoin:miter;stroke-opacity:1;fill-opacity:1" d="m 953.86009,378.77031 75.19041,0 c 5.9828,0 8.4149,-4.64721 8.4149,-8.41481 0,-36.74659 -38.65667,-58.36082 -68.6758,-58.36082 l -154.99548,0 c -38.17944,0 -69.76154,27.34662 -69.76154,55.37492 l 0,29.38781 c 0,38.92151 43.39889,61.27504 76.27624,61.27504 l 118.62176,0 c 25.077,0 25.78734,13.17948 25.78734,19.27264 0,5.58285 -1.27296,19.81554 -26.60168,19.81554 l -88.76274,0 c -21.13826,0 -24.70155,-12.85864 -24.70155,-19.27265 l -74.91901,0 c -2.56301,-0.68676 -7.32903,2.19724 -7.32903,7.60048 0,20.31855 12.92302,65.14696 83.60527,65.14696 l 150.10945,0 c 38.91277,0 70.57587,-27.07817 70.57587,-59.4466 l 0,-34.4736 c 0,-37.78263 -44.9142,-57.54648 -70.20454,-57.54648 l -129.85091,0 c -7.57197,0 -17.64397,-6.49584 -17.64397,-18.18686 0,-11.59406 7.66602,-17.91542 19.54409,-17.91542 l 85.50538,0 c 9.02377,0 19.81554,2.93643 19.81554,15.74385 z" id="path3791" inkscape:connector-curvature="0" sodipodi:nodetypes="ccccccccccccccccccccccccc" />
  <path style="opacity:1;fill:#ffffff;stroke:none;stroke-width:1px;stroke-linecap:butt;stroke-linejoin:miter;stroke-opacity:1;fill-opacity:1" d="M 1103.9688 312.40625 C 1100.8254 312.40625 1096.375 318.18141 1096.375 320.40625 L 1096.625 543.28125 C 1096.625 545.80361 1100.8426 550.74748 1103.6875 550.59375 L 1336.0625 550.59375 C 1395.8362 550.59375 1401.75 507.95598 1401.75 487.0625 C 1401.75 427.86398 1368.8948 435.52312 1360.25 429 C 1385.3023 420.3153 1393.5938 403.01454 1393.5938 375.78125 C 1393.5938 316.48424 1348.4769 312.40625 1312.1562 312.40625 L 1103.9688 312.40625 z M 1178.625 362.46875 L 1292.375 362.46875 C 1298.2963 362.46875 1311.625 367.14731 1311.625 380.9375 C 1311.625 387.12823 1307.0309 400.3125 1294.9688 400.3125 L 1178.625 400.3125 L 1178.625 362.46875 z M 1178.625 456.09375 L 1295.6562 456.09375 C 1301.5775 456.09375 1317.875 460.30602 1317.875 477.625 C 1317.875 487.29032 1309.3712 497.544 1297.0312 497.28125 L 1178.625 497.28125 L 1178.625 456.09375 z " id="path3793" />
</svg>