<?xml version="1.0" standalone="no"?>
<!DOCTYPE svg PUBLIC "-//W3C//DTD SVG 20010904//EN"
 "http://www.w3.org/TR/2001/REC-SVG-20010904/DTD/svg10.dtd">
<svg version="1.0" xmlns="http://www.w3.org/2000/svg"
 width="998.000000pt" height="998.000000pt" viewBox="0 0 998.000000 998.000000"
 preserveAspectRatio="xMidYMid meet">
<metadata>
Created by potrace 1.11, written by Peter Selinger 2001-2013
</metadata>
<g transform="translate(0.000000,998.000000) scale(0.100000,-0.100000)"
fill="#000000" stroke="none">
<path d="M4237 9343 c-1 0 -61 -4 -134 -8 -72 -3 -142 -8 -155 -10 -13 -2 -54
-6 -92 -10 -38 -4 -79 -9 -90 -11 -12 -2 -37 -5 -56 -8 -65 -8 -114 -17 -190
-32 -41 -9 -86 -18 -100 -20 -133 -25 -556 -151 -645 -194 -11 -5 -59 -25
-106 -44 -486 -197 -1005 -544 -1393 -932 -490 -489 -866 -1107 -1071 -1759
-43 -136 -112 -407 -121 -475 -3 -25 -8 -48 -10 -51 -4 -8 -32 -183 -39 -254
-4 -33 -8 -71 -10 -84 -19 -117 -27 -640 -13 -816 48 -574 205 -1129 466
-1640 56 -111 217 -387 244 -420 4 -5 42 -58 83 -117 128 -183 271 -352 450
-533 158 -158 219 -214 367 -333 496 -399 1075 -685 1682 -832 163 -40 393
-83 511 -95 33 -4 67 -8 75 -10 103 -26 716 -26 932 1 177 21 359 52 528 89
246 53 634 189 886 311 715 345 1290 844 1742 1513 l84 124 -818 818 c-450
450 -821 815 -825 811 -3 -4 -18 -43 -34 -87 -178 -504 -586 -956 -1081 -1196
-222 -107 -477 -180 -729 -208 -93 -11 -379 -10 -445 0 -25 4 -70 10 -100 14
-78 9 -249 50 -360 86 -585 191 -1084 652 -1314 1214 -66 159 -122 358 -141
500 -3 17 -9 59 -14 95 -10 67 -8 458 3 520 3 19 8 51 11 70 12 75 16 98 36
180 48 203 167 483 280 655 215 329 505 589 844 758 181 90 435 169 614 193
19 2 46 6 60 9 97 17 313 22 461 11 82 -6 263 -33 340 -51 14 -3 35 -8 47 -11
136 -28 337 -123 470 -221 47 -34 313 -292 669 -648 326 -324 603 -600 617
-613 l25 -24 174 143 c95 79 227 188 293 242 66 54 129 106 140 115 11 10 43
35 70 57 28 22 52 42 55 45 3 3 106 89 230 190 124 101 227 187 230 190 3 3
28 23 55 45 28 22 59 48 70 57 11 9 74 60 140 114 66 54 122 101 125 104 3 3
24 20 48 39 23 18 42 38 42 44 0 7 -26 39 -58 73 -31 33 -93 100 -137 149 -44
48 -93 102 -110 119 -16 18 -70 77 -120 131 -49 54 -99 108 -110 119 -11 12
-69 75 -130 141 -60 66 -130 143 -155 170 -26 28 -76 82 -111 120 -35 39 -91
99 -125 135 -33 36 -78 85 -100 109 -138 157 -313 315 -469 423 -167 115 -474
278 -685 363 -63 25 -124 50 -135 56 -22 10 -350 118 -374 123 -16 3 -71 17
-141 36 -41 11 -211 47 -255 54 -89 15 -237 36 -290 41 -33 4 -71 8 -85 11
-52 8 -516 24 -523 17z"/>
<path d="M8640 5968 c-206 -22 -431 -114 -606 -249 -110 -85 -242 -241 -311
-369 -126 -233 -175 -533 -127 -780 18 -95 29 -136 59 -215 14 -38 37 -92 52
-120 14 -27 30 -60 37 -72 6 -13 14 -23 19 -23 4 0 7 -5 7 -11 0 -16 120 -165
172 -215 178 -169 386 -275 623 -318 346 -63 701 30 980 258 218 178 382 469
421 746 10 74 12 289 2 339 -5 25 -11 58 -13 73 -2 15 -15 66 -30 115 -108
355 -371 636 -721 771 -44 17 -92 33 -105 36 -13 3 -42 10 -65 15 -95 24 -269
32 -394 19z"/>
</g>
</svg>
