<svg id="Layer_1" data-name="Layer 1" xmlns="http://www.w3.org/2000/svg" viewBox="0 0 1863.49 1920"><defs><style>.cls-1{fill:#1b325f;}.cls-1,.cls-2,.cls-3{fill-rule:evenodd;}.cls-2,.cls-3{fill:#248bcb;}.cls-3{stroke:#e3ae67;stroke-miterlimit:22.93;stroke-width:0.22px;}</style></defs><title>Logo</title><path class="cls-1" d="M940.23,1499.16s-425.69-103.32-508.57-459.11c0,0-115.57-331.33,154.84-636,0,0,194.08-249.07,628-164.56,0,0,200.63,51.15,272.59,129,0,0,81.15-54.71,170.07-41.3,0,0-226.78-318.95-724-325.62,0,0-392.52-44.48-708.71,340.23,0,0-169.21,185.45-179,446.47-12.58,334.06,222.21,590.09,532.8,673.19C748.67,1507.05,940.23,1499.16,940.23,1499.16Z" transform="translate(-2.07 0)"/><path class="cls-2" d="M2.07,964.45S8.62,1326.91,233.23,1576c0,0,186.26,288.57,612.33,337.71,481.53,55.52,919.57-258.79,1000.69-761.25,12.82-79.41,22.88-191,18.11-337,0,0-135.2,180.12-364.16,80,62.49,204.63-43.12,468.67-196.59,604.93-82.94,73.62-260,203.62-471.07,197.21-329.19-10-648.89-249.47-770.66-560C39.6,1080.87,21.72,1021.54,2.07,964.45Z" transform="translate(-2.07 0)"/><path class="cls-3" d="M1629.94,808.78c96.68,0,175.54-80.42,175.54-179s-78.86-179-175.54-179-175.54,80.42-175.54,179S1533.25,808.78,1629.94,808.78Z" transform="translate(-2.07 0)"/><polygon class="cls-2" points="688.99 975.58 934.75 1223.76 1176.72 975.58 938.57 736.82 688.99 975.58"/></svg>